<svg width="512" height="512" xmlns="http://www.w3.org/2000/svg" style="background-color:#07aaf4"><path d="M113.785 113H78V78h57.606l8.62 18 8.62 18 126.827.006c69.755.003 130.576.298 135.158.654 6.012.468 9.199 1.233 11.446 2.748 1.713 1.154 3.997 3.61 5.076 5.456 1.078 1.847 2.002 5.314 2.054 7.706.073 3.438-1.08 6.606-5.51 15.139-3.081 5.935-15.851 29.466-28.377 52.291-12.526 22.825-26.009 46.869-29.962 53.431-6.034 10.016-8.1 12.575-12.868 15.947-5.681 4.017-5.681 4.017-21.435 4.741-8.665.399-41.63.76-73.255.803l-57.5.078-7.854 14.515c-4.684 8.655-7.913 15.821-8 17.75-.146 3.235-.146 3.235 6.354 3.868 3.575.348 50.712.686 104.75.75L398 310v35l-104.75-.151c-57.613-.083-108.125-.441-112.25-.795-5.506-.474-8.697-1.351-12-3.302-2.475-1.461-6.39-4.59-8.699-6.954-2.31-2.364-5.441-6.998-6.958-10.298-2.224-4.836-2.763-7.454-2.778-13.5-.014-5.784.558-8.878 2.5-13.523 1.385-3.312 6.775-13.85 11.977-23.417 5.202-9.567 10.116-19.125 10.919-21.239 1.303-3.428 1.285-4.305-.165-8.083-.895-2.331-12.452-26.963-25.682-54.738-13.231-27.775-26.818-56.237-30.193-63.25L113.785 113zM220 399c0-19.33-15.67-35-35-35s-35 15.67-35 35 15.67 35 35 35 35-15.67 35-35zM398 399c0-19.33-15.67-35-35-35s-35 15.67-35 35 15.67 35 35 35 35-15.67 35-35z" fill="#fff"/></svg>