<svg xmlns="http://www.w3.org/2000/svg" viewBox="0 0 48 48" version="1.0">
  <path d="M2.085 10.05h43.83v27.9H2.085z" fill="#fff" />
  <path fill="#3f51b5" d="M6.842 37.89l13.1-8.007v8.064z" />
  <path fill="#e53935" d="M22.035 25.948H2.085v-3.906h19.95V10.044h3.906v11.998h19.95v3.906h-19.95v11.999h-3.906z" />
  <path fill="#3f51b5" d="M28.013 29.427l13.902 8.501-13.881.019z" />
  <path fill="#e53935" d="M28.187 28.11l3.586-.083 14.049 8.594.083 1.326h-1.618c-5.362-3.286-16.1-9.836-16.1-9.836z" />
  <path fill="#e53935" d="M2.084 34.933l11.301-6.906 3.608-.005L2.09 37.214z" />
  <path fill="#3f51b5" d="M2.084 28.041l8.996-.007L2.096 33.6z" />
  <path fill="#3f51b5" d="M37.772 28.11l8.078-.027-.028 4.953z" />
  <path fill="#3f51b5" d="M2.078 15.218l7.805 4.755-7.798-.024z" />
  <path fill="#e53935" d="M2.084 11.509v-1.465h.812l16.683 9.905-3.752-.014z" />
  <path fill="#e53935" d="M33.35 19.894l12.541-7.629v2.202s-5.991 3.651-8.984 5.482c-1.176.015-3.558-.055-3.558-.055z" />
  <path fill="#3f51b5" d="M39.07 19.894l6.822-4.144v4.2z" />
  <path fill="#3f51b5" d="M28.034 10.044l15.312.004-15.312 9.483z" />
  <path fill="#3f51b5" d="M5.6 10.043l14.342.001-.004 8.771z" />
</svg>
